<?xml version="1.0" encoding="utf-8"?>
<!-- Generator: Adobe Illustrator 25.3.0, SVG Export Plug-In . SVG Version: 6.00 Build 0)  -->
<svg version="1.1" id="Capa_1" xmlns="http://www.w3.org/2000/svg" xmlns:xlink="http://www.w3.org/1999/xlink" x="0px" y="0px"
	 viewBox="0 0 576 512" style="enable-background:new 0 0 576 512;" xml:space="preserve">
<style type="text/css">
	.st0{fill:#606060;}
</style>
<path class="st0" d="M144.3,32c-37.4-0.8-80.6,9.4-125.7,29.2C7.2,66.3,0,78,0,90.4V448c0,11.5,12,19.5,22.5,14.6
	c126.3-59.1,219.8,11,223.8,14c2.9,2.2,6.2,3.3,9.8,3.3c12.4,0,16-11.4,16-16V80c0-5.2-2.5-10.1-6.8-13.1
	C263.3,65.6,216.7,33.3,144.3,32z M557.4,61.3C512.3,41.5,468.9,31.7,431.7,32c-72.4,1.3-118.1,33.6-120.9,34.9
	c-4.3,3-6.8,7.9-6.8,13.1v383.1c0,5.3,3.5,16.9,16,16.9c3.5,0,6.9-1.1,9.8-3.3c3.9-3,97.4-73.2,223.8-14
	c10.5,4.9,22.5-3.1,22.5-14.6l0-357.6C575.1,78,568.8,66.3,557.4,61.3z"/>
</svg>
